<?xml version="1.0" encoding="UTF-8"?>
<!DOCTYPE svg PUBLIC "-//W3C//DTD SVG 1.0//EN" "http://www.w3.org/TR/2001/REC-SVG-20010904/DTD/svg10.dtd">
<!-- Creator: CorelDRAW 2018 (64 Bit Versão de avaliação) -->
<svg xmlns="http://www.w3.org/2000/svg" xml:space="preserve" width="10.2268mm" height="10.2268mm" version="1.0" shape-rendering="geometricPrecision" text-rendering="geometricPrecision" image-rendering="optimizeQuality" fill-rule="evenodd" clip-rule="evenodd"
viewBox="0 0 15.69 15.69"
 xmlns:xlink="http://www.w3.org/1999/xlink">
 <g id="Camada_x0020_1">
  <metadata id="CorelCorpID_0Corel-Layer"/>
  <path fill="black" stroke="#363837" stroke-width="0.31" stroke-miterlimit="22.9256" d="M1.81 3.74c0,-0.17 0.06,-0.24 0.15,-0.34l1.17 -1.17c0.19,-0.19 0.33,-0.42 0.63,-0.42 0.25,0 1.17,0.88 1.39,0.88 0.12,0 0.25,-0.08 0.38,-0.13 0.74,-0.31 0.57,0.02 0.82,-1.5 0.02,-0.14 0.02,-0.26 0.1,-0.36 0.06,-0.08 0.17,-0.15 0.31,-0.15l2.15 0c0.14,0 0.25,0.07 0.31,0.15 0.12,0.14 0.2,0.93 0.24,1.15 0.06,0.37 -0,0.45 0.35,0.58 0.97,0.35 0.53,0.43 1.41,-0.18l0.33 -0.23c0.14,-0.1 0.25,-0.2 0.43,-0.2 0.18,0 0.21,0.07 0.3,0.16l1.16 1.16c0.24,0.24 0.59,0.5 0.34,0.84l-0.36 0.5c-0.08,0.11 -0.15,0.21 -0.23,0.33 -0.34,0.47 -0.24,0.31 0.06,1.06 0.15,0.37 0.16,0.29 0.57,0.36 0.28,0.05 0.53,0.08 0.79,0.13 0.26,0.05 0.51,0.08 0.51,0.41l0 2.15c0,0.32 -0.25,0.38 -0.51,0.42 -0.21,0.04 -1.01,0.15 -1.18,0.21 -0.16,0.06 -0.24,0.45 -0.32,0.61 -0.24,0.52 -0.2,0.34 0.54,1.4 0.18,0.26 0.33,0.47 0.04,0.75 -0.04,0.04 -0.07,0.07 -0.11,0.11l-0.58 0.59c-0.14,0.14 -0.32,0.34 -0.47,0.46 -0.43,0.35 -0.45,0.62 -1,0.21l-0.66 -0.47c-0.38,-0.26 -0.27,-0.27 -0.73,-0.08 -0.12,0.05 -0.22,0.09 -0.33,0.13 -0.4,0.15 -0.29,0.13 -0.37,0.56 -0.03,0.2 -0.14,1.02 -0.24,1.16 -0.07,0.09 -0.17,0.17 -0.32,0.17l-2.2 0c-0.29,0 -0.33,-0.32 -0.37,-0.54 -0.04,-0.21 -0.14,-1.02 -0.21,-1.18 -0.05,-0.12 -0.18,-0.12 -0.3,-0.17 -0.1,-0.04 -0.23,-0.08 -0.33,-0.13 -0.52,-0.25 -0.33,-0.16 -1.36,0.55 -0.28,0.19 -0.47,0.33 -0.75,0.05l-1.43 -1.43c-0.32,-0.32 -0.11,-0.54 0.11,-0.83 0.91,-1.23 0.62,-0.75 0.32,-1.69 -0.08,-0.26 -0.22,-0.25 -0.47,-0.29 -0.14,-0.02 -0.21,-0.04 -0.33,-0.06 -0.21,-0.03 -0.42,-0.07 -0.65,-0.11 -0.14,-0.02 -0.18,-0.03 -0.26,-0.1 -0.06,-0.05 -0.14,-0.15 -0.14,-0.25l0 -2.25c0,-0.23 0.22,-0.31 0.41,-0.35 0.2,-0.04 1.13,-0.17 1.29,-0.23 0.15,-0.05 0.3,-0.59 0.38,-0.74 0.17,-0.33 0.06,-0.35 -0.22,-0.73l-0.47 -0.66c-0.06,-0.08 -0.12,-0.14 -0.12,-0.28zm3.98 -1.71c-0.21,0.05 -0.41,0.2 -0.61,0.24 -0.11,-0.08 -0.22,-0.17 -0.34,-0.24 -0.3,-0.2 -0.77,-0.63 -1.12,-0.63 -0.36,0 -0.54,0.23 -0.73,0.42 -0.21,0.21 -0.52,0.54 -0.73,0.71l-0.71 0.75c-0.05,0.08 -0.07,0.1 -0.1,0.19 -0.16,0.5 0.15,0.75 0.51,1.27 0.06,0.08 0.1,0.14 0.16,0.23 0.03,0.05 0.05,0.07 0.08,0.12 0.16,0.21 -0.06,0.23 -0.17,0.7 -0.17,0 -0.95,0.16 -1.18,0.19 -0.22,0.04 -0.34,0.09 -0.47,0.22 -0.11,0.11 -0.24,0.26 -0.24,0.47l0 2.34c0,0.16 0.13,0.38 0.21,0.47 0.24,0.24 0.66,0.25 1.05,0.32 0.16,0.03 0.43,0.09 0.62,0.09 0.04,0.17 0.15,0.37 0.21,0.53 0.04,0.09 0.04,0.07 -0.02,0.15 -0.17,0.25 -0.71,0.95 -0.78,1.17 -0.09,0.28 -0.01,0.56 0.16,0.73l1.47 1.46c0.58,0.58 0.9,0.36 1.45,-0.05l0.52 -0.36c0.06,-0.04 0.11,-0.08 0.17,-0.12l0.59 0.24c0,0.11 0.03,0.2 0.05,0.3 0.02,0.1 0.03,0.2 0.05,0.29 0.08,0.5 0.07,0.88 0.4,1.14 0.1,0.08 0.24,0.15 0.38,0.15l2.34 0c0.18,0 0.37,-0.12 0.47,-0.21 0.12,-0.11 0.18,-0.27 0.22,-0.46 0.03,-0.18 0.19,-1.06 0.19,-1.2 0.38,-0.09 0.51,-0.31 0.68,-0.19 0.04,0.03 0.07,0.05 0.11,0.08 0.32,0.22 0.9,0.74 1.26,0.74 0.43,0 0.51,-0.23 0.75,-0.42 0.21,-0.16 0.92,-0.9 1.16,-1.14 0.68,-0.68 0.47,-0.94 0.04,-1.54 -0.06,-0.08 -0.12,-0.16 -0.17,-0.24 -0.37,-0.56 -0.36,-0.32 -0.19,-0.75 0.04,-0.09 0.09,-0.21 0.12,-0.3 0.15,0 1.02,-0.15 1.2,-0.19 0.38,-0.07 0.68,-0.32 0.68,-0.71l0 -2.29c0,-0.13 -0.03,-0.21 -0.07,-0.29 -0.15,-0.28 -0.37,-0.38 -0.69,-0.43l-0.94 -0.16c-0.18,-0.03 -0.17,0.02 -0.23,-0.16 -0.23,-0.61 -0.28,-0.3 0.16,-0.95 0.26,-0.38 0.53,-0.63 0.53,-1.01 0,-0.34 -0.24,-0.55 -0.42,-0.73 -0.22,-0.22 -0.74,-0.76 -0.96,-0.94l-0.2 -0.19c-0.39,-0.39 -0.69,-0.66 -1.29,-0.21 -0.08,0.06 -0.85,0.65 -0.95,0.64 -0.05,-0.01 -0.42,-0.19 -0.57,-0.23 0,-0.15 -0.15,-0.98 -0.18,-1.18 -0.04,-0.2 -0.08,-0.32 -0.21,-0.47 -0.08,-0.09 -0.32,-0.23 -0.48,-0.23l-2.34 0c-0.2,0 -0.35,0.12 -0.46,0.23 -0.13,0.13 -0.19,0.24 -0.23,0.46l-0.19 1.2z"/>
  <path fill="black" stroke="#363837" stroke-width="0.31" stroke-miterlimit="22.9256" d="M4.44 7.84c0,-3.52 4.8,-4.79 6.47,-1.47 0.59,1.16 0.4,2.71 -0.46,3.67l-0.4 0.4c-0.07,0.07 -0.15,0.12 -0.23,0.18 -0.46,0.35 -1.22,0.63 -1.83,0.63 -0.64,0 -1.09,-0.06 -1.63,-0.32 -0.44,-0.22 -0.85,-0.53 -1.16,-0.91 -0.48,-0.59 -0.76,-1.34 -0.76,-2.16zm-0.47 -0.12c0,1.1 0.33,2.06 1.1,2.83 0.64,0.64 1.58,1.16 2.51,1.16 1.03,0 1.36,-0.05 2.25,-0.53 0.1,-0.05 0.18,-0.11 0.27,-0.17l0.71 -0.65c0.48,-0.55 0.91,-1.52 0.91,-2.28 0,-0.74 -0.03,-1.24 -0.37,-1.91 -0.61,-1.22 -1.87,-2.2 -3.39,-2.2 -1.25,0 -2.16,0.43 -2.86,1.13 -0.55,0.55 -1.13,1.54 -1.13,2.63z"/>
 </g>
</svg>
